<?xml version="1.0" encoding="UTF-8"?>
<svg width="415px" height="91px" viewBox="0 0 415 91" version="1.1" xmlns="http://www.w3.org/2000/svg" xmlns:xlink="http://www.w3.org/1999/xlink">
    <!-- Generator: Sketch 48.2 (47327) - http://www.bohemiancoding.com/sketch -->
    <title>Page 1</title>
    <desc>Created with Sketch.</desc>
    <defs></defs>
    <g id="Home" stroke="none" stroke-width="1" fill="none" fill-rule="evenodd" transform="translate(-40.000000, -10.000000)">
        <g id="Page-1" transform="translate(40.000000, 10.000000)">
            <path d="M59.11704,0.00048 L52.17744,6.94008 L45.23664,0.00048 L45.23424,0.00048 L0.00024,45.23688 L45.23544,90.47328 L52.17744,83.53248 L59.11824,90.47328 L104.35464,45.23688 L59.11944,0.00048 L59.11704,0.00048 Z M53.24784,82.46208 L90.47304,45.23688 L53.24784,8.01168 L59.11824,2.14248 L102.21264,45.23688 L59.11824,88.33128 L53.24784,82.46208 Z M2.14224,45.23688 L45.23544,2.14248 L51.08304,7.98768 L14.59344,44.47848 L14.61624,44.50128 L13.88064,45.23688 L51.10704,82.46208 L45.23544,88.33128 L2.14224,45.23688 Z" id="Fill-1" fill="#172955"></path>
            <g id="Group" transform="translate(115.000000, 8.000000)" fill="#172955">
                <text id="Forbes-Retirement" font-family="Garamond-Bold, Garamond" font-size="38.0851632" font-weight="bold" letter-spacing="-1.07019314">
                    <tspan x="0.6658848" y="33.5755554">F</tspan>
                    <tspan x="21.9484095" y="33.5755554">orbes </tspan>
                    <tspan x="119.151119" y="33.5755554" letter-spacing="-0.384660155">R</tspan>
                    <tspan x="144.968604" y="33.5755554">e</tspan>
                    <tspan x="162.821025" y="33.5755554" letter-spacing="-0.0190425809">t</tspan>
                    <tspan x="174.703596" y="33.5755554">i</tspan>
                    <tspan x="185.415048" y="33.5755554" letter-spacing="0.361809021">r</tspan>
                    <tspan x="199.240557" y="33.5755554">ement</tspan>
                </text>
                <text id="Benefits-Scheme" font-family="Garamond" font-size="26.1542736" font-weight="normal">
                    <tspan x="0.6658848" y="60.9180998">B</tspan>
                    <tspan x="16.7441223" y="60.9180998" letter-spacing="-0.0156925656">e</tspan>
                    <tspan x="27.6217869" y="60.9180998">n</tspan>
                    <tspan x="40.9671072" y="60.9180998" letter-spacing="-0.0130771369">e</tspan>
                    <tspan x="51.8473871" y="60.9180998">fi</tspan>
                    <tspan x="66.2782119" y="60.9180998" letter-spacing="-0.0130771369">t</tspan>
                    <tspan x="73.8892077" y="60.9180998">s S</tspan>
                    <tspan x="102.495444" y="60.9180998" letter-spacing="-0.35831354">c</tspan>
                    <tspan x="112.685681" y="60.9180998">h</tspan>
                    <tspan x="126.031001" y="60.9180998" letter-spacing="-0.0130771369">e</tspan>
                    <tspan x="136.911281" y="60.9180998">me</tspan>
                </text>
            </g>
            <g id="Group-11" transform="translate(32.200000, 31.473160)" fill="#9C9C9C">
                <path d="M34.82384,23.16956 C33.41864,21.19436 32.05424,19.19036 30.66464,17.20436 C29.81144,15.98396 28.95224,14.76596 27.47504,14.19116 C28.20104,13.93076 28.89464,13.73396 29.54024,13.43516 C30.19424,13.13276 30.82664,12.76556 31.42544,12.36356 C35.40584,9.69836 35.13584,3.59636 30.80504,1.26596 C28.57904,0.06836 26.17784,0.04796 23.75864,0.06236 C24.36584,0.28076 24.99344,0.42116 25.59824,0.62756 C28.40264,1.58396 30.24944,4.12196 30.24104,6.97316 C30.23144,10.03556 28.49504,12.43676 25.50104,13.34036 C24.21944,13.72676 22.87304,13.89836 21.44264,14.19116 C22.84424,14.40236 23.87384,15.17036 24.69104,16.14836 C26.22704,17.98556 27.70544,19.87436 29.13344,21.79676 C30.16064,23.17916 31.06424,24.65396 32.02784,26.08316 C32.47904,26.75276 33.00224,27.15836 33.92744,27.10676 C35.67344,27.00836 37.42664,27.07916 39.17744,27.07436 C39.37664,27.07436 39.57704,27.04436 39.77744,27.02876 C37.57664,26.40116 36.07784,24.93236 34.82384,23.16956" id="Fill-3"></path>
                <path d="M10.49396,13.29356 C14.58836,13.24316 16.40636,15.71636 17.37716,19.18076 L17.37716,7.95836 C16.94276,12.10556 13.85516,12.81236 10.49396,13.29356" id="Fill-5"></path>
                <path d="M7.38032,23.64764 C7.25672,18.52724 7.22672,13.40444 7.23752,8.28284 C7.24232,5.54804 7.41152,2.81444 7.50752,0.02324 L0.53192,0.02324 C0.74432,0.18884 0.95552,0.24524 1.16672,0.29804 C2.47472,0.62204 3.07232,1.26764 3.26792,2.59244 C3.33032,3.01124 3.39752,3.43604 3.39872,3.85724 C3.41192,8.80604 3.41672,13.75484 3.41672,18.70364 C3.41672,19.75244 3.40232,20.80244 3.37352,21.85124 C3.31232,24.18644 3.14792,26.46644 0.17792,27.03884 L10.02872,27.03884 C7.92152,26.38244 7.43552,25.93244 7.38032,23.64764" id="Fill-7"></path>
                <path d="M13.32224,0.04496 C17.32064,0.47456 19.49024,3.41576 21.96584,6.01136 C21.54704,4.02656 21.12584,2.04056 20.70344,0.04496 L13.32224,0.04496 Z" id="Fill-9"></path>
            </g>
        </g>
    </g>
</svg>